<?xml version="1.0" encoding="UTF-8" standalone="no"?>
<!-- Created with Inkscape (http://www.inkscape.org/) -->

<svg
   xmlns:dc="http://purl.org/dc/elements/1.1/"
   xmlns:cc="http://creativecommons.org/ns#"
   xmlns:rdf="http://www.w3.org/1999/02/22-rdf-syntax-ns#"
   xmlns:svg="http://www.w3.org/2000/svg"
   xmlns="http://www.w3.org/2000/svg"
   xmlns:sodipodi="http://sodipodi.sourceforge.net/DTD/sodipodi-0.dtd"
   xmlns:inkscape="http://www.inkscape.org/namespaces/inkscape"
   width="25.1mm"
   height="25.1mm"
   viewBox="0 0 25.099999 25.1"
   version="1.1"
   id="svg8"
   inkscape:version="0.92.4 5da689c313, 2019-01-14"
   sodipodi:docname="conu-logo-inverted-square.svg">
  <defs
     id="defs2" />
  <sodipodi:namedview
     id="base"
     pagecolor="#ffffff"
     bordercolor="#666666"
     borderopacity="1.0"
     inkscape:pageopacity="0.0"
     inkscape:pageshadow="2"
     inkscape:zoom="5.6164551"
     inkscape:cx="55.506084"
     inkscape:cy="51.339386"
     inkscape:document-units="mm"
     inkscape:current-layer="layer5"
     showgrid="false"
     showguides="false"
     inkscape:guide-bbox="true"
     fit-margin-top="0"
     fit-margin-left="0"
     fit-margin-right="0"
     fit-margin-bottom="0"
     inkscape:window-width="1920"
     inkscape:window-height="1048"
     inkscape:window-x="800"
     inkscape:window-y="1694"
     inkscape:window-maximized="1"
     inkscape:lockguides="false">
    <sodipodi:guide
       position="17.674209,12.31211"
       orientation="1,0"
       id="guide916"
       inkscape:locked="false" />
    <sodipodi:guide
       position="7.9630478,17.281534"
       orientation="1,0"
       inkscape:locked="false"
       id="guide920" />
    <sodipodi:guide
       position="6.2364618,15.865842"
       orientation="1,0"
       inkscape:locked="false"
       id="guide922" />
    <sodipodi:guide
       position="19.517304,14.093341"
       orientation="1,0"
       inkscape:locked="false"
       id="guide924" />
  </sodipodi:namedview>
  <metadata
     id="metadata5">
    <rdf:RDF>
      <cc:Work
         rdf:about="">
        <dc:format>image/svg+xml</dc:format>
        <dc:type
           rdf:resource="http://purl.org/dc/dcmitype/StillImage" />
        <dc:title></dc:title>
      </cc:Work>
    </rdf:RDF>
  </metadata>
  <g
     inkscape:groupmode="layer"
     id="layer5"
     inkscape:label="Outline"
     transform="translate(-7.9001431,-263.99985)"
     style="display:inline"
     sodipodi:insensitive="true">
    <rect
       style="opacity:1;fill:#010101;fill-opacity:1;fill-rule:nonzero;stroke:none;stroke-width:1.03580642;stroke-miterlimit:4;stroke-dasharray:none;stroke-opacity:1;paint-order:stroke fill markers"
       id="rect1489"
       width="25.1"
       height="25.1"
       x="7.9001431"
       y="263.99985" />
  </g>
  <g
     inkscape:label="Name HLRTB"
     inkscape:groupmode="layer"
     id="layer1"
     style="display:inline"
     transform="translate(-7.9001431,-263.99985)"
     sodipodi:insensitive="true">
    <flowRoot
       xml:space="preserve"
       id="flowRoot815"
       style="font-style:normal;font-variant:normal;font-weight:normal;font-stretch:normal;font-size:40px;line-height:1.25;font-family:Sarpanch;-inkscape-font-specification:Sarpanch;letter-spacing:0px;word-spacing:0px;fill:#ffffff;fill-opacity:1;stroke:none"
       transform="scale(0.26458333)"><flowRegion
         id="flowRegion817"
         style="fill:#ffffff;fill-opacity:1"><rect
           id="rect819"
           width="385.71429"
           height="302.85715"
           x="134.28572"
           y="231.09111"
           style="fill:#ffffff;fill-opacity:1" /></flowRegion><flowPara
         id="flowPara821" /></flowRoot>    <flowRoot
       xml:space="preserve"
       id="flowRoot831"
       style="font-style:normal;font-variant:normal;font-weight:normal;font-stretch:normal;font-size:40px;line-height:1.25;font-family:Sarpanch;-inkscape-font-specification:Sarpanch;letter-spacing:0px;word-spacing:0px;fill:#ffffff;fill-opacity:1;stroke:none"
       transform="scale(0.26458333)"><flowRegion
         id="flowRegion833"
         style="fill:#ffffff;fill-opacity:1"><rect
           id="rect835"
           width="85.714287"
           height="85.714287"
           x="-1048.5714"
           y="93.948257"
           style="fill:#ffffff;fill-opacity:1" /></flowRegion><flowPara
         id="flowPara837" /></flowRoot>    <g
       aria-label="N"
       style="font-style:normal;font-variant:normal;font-weight:normal;font-stretch:normal;font-size:10.58333302px;line-height:1.25;font-family:Sarpanch;-inkscape-font-specification:Sarpanch;letter-spacing:0px;word-spacing:0px;fill:#ffffff;fill-opacity:1;stroke:none;stroke-width:0.26458332"
       id="text845"
       transform="matrix(1.4786884,0,0,1.5191035,5.5639348,-159.61643)" />
    <g
       aria-label="C"
       style="font-style:normal;font-variant:normal;font-weight:normal;font-stretch:normal;font-size:10.58333302px;line-height:1.25;font-family:Sarpanch;-inkscape-font-specification:Sarpanch;letter-spacing:0px;word-spacing:0px;fill:#ffffff;fill-opacity:1;stroke:none;stroke-width:0.26458332"
       id="text853"
       transform="matrix(1.5388955,0,0,1.5191012,-8.6457745,-147.23803)" />
    <g
       aria-label="O"
       style="font-style:normal;font-variant:normal;font-weight:normal;font-stretch:normal;font-size:10.58333302px;line-height:1.25;font-family:Sarpanch;-inkscape-font-specification:Sarpanch;letter-spacing:0px;word-spacing:0px;fill:#ffffff;fill-opacity:1;stroke:none;stroke-width:0.26458332"
       id="text841"
       transform="matrix(1.5166643,0,0,1.5191012,-8.2426775,-146.65395)">
      <path
         d="m 26.006202,272.34792 c 0,-0.56092 -0.275167,-0.83609 -0.836084,-0.83609 h -4.92125 c -0.560916,0 -0.836083,0.27517 -0.836083,0.83609 v 4.91066 c 0,0.56092 0.275167,0.83609 0.836083,0.83609 h 4.92125 c 0.560917,0 0.836084,-0.27517 0.836084,-0.83609 z m -2.688167,4.79425 c 0,0.27516 -0.05292,0.32808 -0.328083,0.32808 h -0.560917 c -0.275167,0 -0.328083,-0.0529 -0.328083,-0.32808 v -4.67784 c 0,-0.27516 0.05292,-0.32808 0.328083,-0.32808 h 0.560917 c 0.275166,0 0.328083,0.0529 0.328083,0.32808 z"
         style="font-style:normal;font-variant:normal;font-weight:900;font-stretch:normal;font-family:Sarpanch;-inkscape-font-specification:'Sarpanch Heavy';fill:#ffffff;fill-opacity:1;stroke-width:0.26458332"
         id="path890"
         inkscape:connector-curvature="0" />
    </g>
    <g
       aria-label="U"
       style="font-style:normal;font-variant:normal;font-weight:normal;font-stretch:normal;font-size:10.58333302px;line-height:1.25;font-family:Sarpanch;-inkscape-font-specification:Sarpanch;letter-spacing:0px;word-spacing:0px;fill:#ffffff;fill-opacity:1;stroke:none;stroke-width:0.26458332"
       id="text849"
       transform="matrix(1.5166645,0,0,1.5191035,3.6066923,-159.31643)">
      <path
         d="M 14.288167,287.41717 H 11.6 v 5.74675 C 11.6,293.72483 11.875167,294 12.436083,294 h 4.92125 c 0.560917,0 0.836083,-0.27517 0.836083,-0.83608 v -5.74675 H 15.50525 v 5.63033 c 0,0.27517 -0.05292,0.32808 -0.328083,0.32808 H 14.61625 c -0.275167,0 -0.328083,-0.0529 -0.328083,-0.32808 z"
         style="font-style:normal;font-variant:normal;font-weight:900;font-stretch:normal;font-family:Sarpanch;-inkscape-font-specification:'Sarpanch Heavy';fill:#ffffff;fill-opacity:1;stroke-width:0.26458332"
         id="path896"
         inkscape:connector-curvature="0" />
    </g>
    <path
       d="m 19.7,269.52991 v -2.45981 c 0,-0.85209 -0.423453,-1.2701 -1.286646,-1.2701 h -7.426709 c -0.863191,0 -1.2866446,0.41801 -1.2866446,1.2701 v 7.45979 c 0,0.8521 0.4234536,1.27011 1.2866446,1.27011 h 7.426709 C 19.276547,275.8 19.7,275.38199 19.7,274.52989 v -2.41157 h -4.136808 v 2.23473 c 0,0.418 -0.08144,0.49839 -0.504885,0.49839 h -0.716613 c -0.423453,0 -0.504886,-0.0804 -0.504886,-0.49839 v -7.10611 c 0,-0.418 0.08144,-0.49839 0.504886,-0.49839 h 0.716613 c 0.423451,0 0.504885,0.0804 0.504885,0.49839 v 2.28297 z"
       style="font-style:normal;font-variant:normal;font-weight:900;font-stretch:normal;font-size:10.58333302px;line-height:1.25;font-family:Sarpanch;-inkscape-font-specification:'Sarpanch Heavy';letter-spacing:0px;word-spacing:0px;display:inline;fill:#ffffff;fill-opacity:1;stroke:none;stroke-width:0.40453899"
       id="path887"
       inkscape:connector-curvature="0" />
    <path
       style="font-style:normal;font-variant:normal;font-weight:900;font-stretch:normal;font-size:10.58333302px;line-height:1.25;font-family:Sarpanch;-inkscape-font-specification:'Sarpanch Heavy';letter-spacing:0px;word-spacing:0px;display:inline;fill:#ffffff;fill-opacity:1;stroke:none;stroke-width:0.40160665"
       d="m 9.7000005,277.3001 v 8.72969 c 0,0.85209 0.4174175,1.27021 1.2681395,1.27021 l 2.869047,-5e-5 -1.87e-4,-5.48195 2.101938,5.48195 3.760969,5e-5 v -9.9999 H 15.56325 v 5.5629 l -2.086248,-5.5629 z"
       id="path896-4-4"
       inkscape:connector-curvature="0"
       sodipodi:nodetypes="cssccccccccc" />
  </g>
  <g
     transform="translate(-7.9001431,-263.99985)"
     style="display:none"
     id="g1481"
     inkscape:groupmode="layer"
     inkscape:label="Name VTBLR Rounded"
     sodipodi:insensitive="true">
    <flowRoot
       transform="scale(0.26458333)"
       style="font-style:normal;font-variant:normal;font-weight:normal;font-stretch:normal;font-size:40px;line-height:1.25;font-family:Sarpanch;-inkscape-font-specification:Sarpanch;letter-spacing:0px;word-spacing:0px;fill:#ffffff;fill-opacity:1;stroke:none"
       id="flowRoot1453"
       xml:space="preserve"><flowRegion
         style="fill:#ffffff;fill-opacity:1"
         id="flowRegion1449"><rect
           style="fill:#ffffff;fill-opacity:1"
           y="231.09111"
           x="134.28572"
           height="302.85715"
           width="385.71429"
           id="rect1447" /></flowRegion><flowPara
         id="flowPara1451" /></flowRoot>    <flowRoot
       transform="scale(0.26458333)"
       style="font-style:normal;font-variant:normal;font-weight:normal;font-stretch:normal;font-size:40px;line-height:1.25;font-family:Sarpanch;-inkscape-font-specification:Sarpanch;letter-spacing:0px;word-spacing:0px;fill:#ffffff;fill-opacity:1;stroke:none"
       id="flowRoot1461"
       xml:space="preserve"><flowRegion
         style="fill:#ffffff;fill-opacity:1"
         id="flowRegion1457"><rect
           style="fill:#ffffff;fill-opacity:1"
           y="93.948257"
           x="-1048.5714"
           height="85.714287"
           width="85.714287"
           id="rect1455" /></flowRegion><flowPara
         id="flowPara1459" /></flowRoot>    <g
       transform="matrix(1.4786884,0,0,1.5191035,5.5639348,-159.61643)"
       id="g1463"
       style="font-style:normal;font-variant:normal;font-weight:normal;font-stretch:normal;font-size:10.58333302px;line-height:1.25;font-family:Sarpanch;-inkscape-font-specification:Sarpanch;letter-spacing:0px;word-spacing:0px;fill:#ffffff;fill-opacity:1;stroke:none;stroke-width:0.26458332"
       aria-label="N" />
    <g
       transform="matrix(1.5388955,0,0,1.5191012,-8.6457745,-147.23803)"
       id="g1465"
       style="font-style:normal;font-variant:normal;font-weight:normal;font-stretch:normal;font-size:10.58333302px;line-height:1.25;font-family:Sarpanch;-inkscape-font-specification:Sarpanch;letter-spacing:0px;word-spacing:0px;fill:#ffffff;fill-opacity:1;stroke:none;stroke-width:0.26458332"
       aria-label="C" />
    <g
       transform="matrix(1.5166643,0,0,1.5191012,-8.2426775,-146.65395)"
       id="g1469"
       style="font-style:normal;font-variant:normal;font-weight:normal;font-stretch:normal;font-size:10.58333302px;line-height:1.25;font-family:Sarpanch;-inkscape-font-specification:Sarpanch;letter-spacing:0px;word-spacing:0px;fill:#000000;fill-opacity:1;stroke:none;stroke-width:0.26458332"
       aria-label="O">
      <path
         inkscape:connector-curvature="0"
         id="path1467"
         style="font-style:normal;font-variant:normal;font-weight:900;font-stretch:normal;font-family:Sarpanch;-inkscape-font-specification:'Sarpanch Heavy';fill:#000000;fill-opacity:1;stroke-width:0.26458332"
         d="m 18.423867,279.91809 c 0,-0.56092 -0.275167,-0.83609 -0.836084,-0.83609 h -4.92125 c -0.560916,0 -0.836083,0.27517 -0.836083,0.83609 v 4.91066 c 0,0.56092 0.275167,0.83609 0.836083,0.83609 h 4.92125 c 0.560917,0 0.836084,-0.27517 0.836084,-0.83609 z m -2.688167,4.79425 c 0,0.27516 -0.05292,0.32808 -0.328083,0.32808 H 14.8467 c -0.275167,0 -0.328083,-0.0529 -0.328083,-0.32808 v -4.67784 c 0,-0.27516 0.05292,-0.32808 0.328083,-0.32808 h 0.560917 c 0.275166,0 0.328083,0.0529 0.328083,0.32808 z" />
    </g>
    <g
       transform="matrix(1.5166645,0,0,1.5191035,3.6066923,-159.31643)"
       id="g1473"
       style="font-style:normal;font-variant:normal;font-weight:normal;font-stretch:normal;font-size:10.58333302px;line-height:1.25;font-family:Sarpanch;-inkscape-font-specification:Sarpanch;letter-spacing:0px;word-spacing:0px;fill:#000000;fill-opacity:1;stroke:none;stroke-width:0.26458332"
       aria-label="U" />
    <path
       inkscape:connector-curvature="0"
       id="path1475"
       style="font-style:normal;font-variant:normal;font-weight:900;font-stretch:normal;font-size:10.58333302px;line-height:1.25;font-family:Sarpanch;-inkscape-font-specification:'Sarpanch Heavy';letter-spacing:0px;word-spacing:0px;display:inline;fill:#000000;fill-opacity:1;stroke:none;stroke-width:0.40453899"
       d="m 19.7,269.52991 v -2.45981 c 0,-0.85209 -0.423453,-1.2701 -1.286646,-1.2701 h -7.426709 c -0.863191,0 -1.2866446,0.41801 -1.2866446,1.2701 v 7.45979 c 0,0.8521 0.4234536,1.27011 1.2866446,1.27011 h 7.426709 C 19.276547,275.8 19.7,275.38199 19.7,274.52989 v -2.41157 h -4.136808 v 2.23473 c 0,0.418 -0.08144,0.49839 -0.504885,0.49839 h -0.716613 c -0.423453,0 -0.504886,-0.0804 -0.504886,-0.49839 v -7.10611 c 0,-0.418 0.08144,-0.49839 0.504886,-0.49839 h 0.716613 c 0.423451,0 0.504885,0.0804 0.504885,0.49839 v 2.28297 z" />
    <path
       style="font-style:normal;font-variant:normal;font-weight:900;font-stretch:normal;font-size:10.58333302px;line-height:1.25;font-family:Sarpanch;-inkscape-font-specification:'Sarpanch Heavy';letter-spacing:0px;word-spacing:0px;display:inline;fill:#000000;fill-opacity:1;stroke:none;stroke-width:1.51788342"
       d="m 67.654297,9.9121094 -9.412109,0.00195 c -3.262462,0 -4.863282,1.5783306 -4.863282,4.7988286 V 42.90625 c 0,3.220498 1.577646,4.800781 4.792969,4.800781 h 10.84375 l -0.002,-20.71875 7.945312,20.71875 h 4.001954 4.166015 1.181641 c 3.262461,0 4.863281,-1.580246 4.863281,-4.800781 v -2.091797 l 0.002,-0.002 V 16.916016 15.349609 14.712891 c 0,-3.220498 -1.600819,-4.8007816 -4.863281,-4.8007816 h -1.939453 -1.207032 -7.625 V 30.9375 Z"
       transform="matrix(0.26458333,0,0,0.26458333,7.0771433,263.17714)"
       id="path1477"
       inkscape:connector-curvature="0" />
    <path
       style="font-style:normal;font-variant:normal;font-weight:900;font-stretch:normal;font-size:10.58333302px;line-height:1.25;font-family:Sarpanch;-inkscape-font-specification:'Sarpanch Heavy';letter-spacing:0px;word-spacing:0px;display:inline;fill:#000000;fill-opacity:1;stroke:none;stroke-width:1.52896631"
       d="m 68.787109,53.376953 -10.544921,0.002 c -3.262462,0 -4.863282,1.578331 -4.863282,4.798828 l -0.002,28.195313 c 0,3.22046 1.577645,4.800781 4.792969,4.800781 h 28.210937 c 3.215331,0 4.792969,-1.580321 4.792969,-4.800781 V 60.380859 h 0.002 v -2.203125 c 0,-3.220497 -1.600819,-4.800781 -4.863281,-4.800781 h -1.564453 -1.582031 -7.402344 v 32.328125 c 0,1.57988 -0.303542,1.882813 -1.88086,1.882813 h -3.214843 c -1.577333,0 -1.88086,-0.303008 -1.88086,-1.882813 z"
       transform="matrix(0.26458333,0,0,0.26458333,7.0771433,263.17714)"
       id="path1475-9"
       inkscape:connector-curvature="0" />
  </g>
  <g
     inkscape:groupmode="layer"
     id="layer2"
     inkscape:label="Name VTBRL"
     style="display:none"
     sodipodi:insensitive="true"
     transform="translate(-0.82299985,-0.82270741)">
    <g
       aria-label="O"
       style="font-style:normal;font-variant:normal;font-weight:normal;font-stretch:normal;font-size:10.58333302px;line-height:1.25;font-family:Sarpanch;-inkscape-font-specification:Sarpanch;letter-spacing:0px;word-spacing:0px;fill:#000000;fill-opacity:1;stroke:none;stroke-width:0.26458332"
       id="text841-6"
       transform="matrix(1.5166643,0,0,1.5191012,-15.319821,-398.33123)">
      <path
         d="m 26.006202,272.34792 c 0,-0.56092 -0.275167,-0.83609 -0.836084,-0.83609 h -4.92125 c -0.560916,0 -0.836083,0.27517 -0.836083,0.83609 v 4.91066 c 0,0.56092 0.275167,0.83609 0.836083,0.83609 h 4.92125 c 0.560917,0 0.836084,-0.27517 0.836084,-0.83609 z m -2.688167,4.79425 c 0,0.27516 -0.05292,0.32808 -0.328083,0.32808 h -0.560917 c -0.275167,0 -0.328083,-0.0529 -0.328083,-0.32808 v -4.67784 c 0,-0.27516 0.05292,-0.32808 0.328083,-0.32808 h 0.560917 c 0.275166,0 0.328083,0.0529 0.328083,0.32808 z"
         style="font-style:normal;font-variant:normal;font-weight:900;font-stretch:normal;font-family:Sarpanch;-inkscape-font-specification:'Sarpanch Heavy';fill:#000000;fill-opacity:1;stroke-width:0.26458332"
         id="path890-7"
         inkscape:connector-curvature="0" />
    </g>
    <g
       aria-label="U"
       style="font-style:normal;font-variant:normal;font-weight:normal;font-stretch:normal;font-size:10.58333302px;line-height:1.25;font-family:Sarpanch;-inkscape-font-specification:Sarpanch;letter-spacing:0px;word-spacing:0px;fill:#000000;fill-opacity:1;stroke:none;stroke-width:0.26458332"
       id="text849-5"
       transform="matrix(1.5166645,0,0,1.5191035,-14.970308,-422.49347)">
      <path
         d="M 14.288167,287.41717 H 11.6 v 5.74675 C 11.6,293.72483 11.875167,294 12.436083,294 h 4.92125 c 0.560917,0 0.836083,-0.27517 0.836083,-0.83608 v -5.74675 H 15.50525 v 5.63033 c 0,0.27517 -0.05292,0.32808 -0.328083,0.32808 H 14.61625 c -0.275167,0 -0.328083,-0.0529 -0.328083,-0.32808 z"
         style="font-style:normal;font-variant:normal;font-weight:900;font-stretch:normal;font-family:Sarpanch;-inkscape-font-specification:'Sarpanch Heavy';fill:#000000;fill-opacity:1;stroke-width:0.26458332"
         id="path896-3"
         inkscape:connector-curvature="0" />
    </g>
    <path
       d="M 24.123,6.3527659 V 3.8929613 c 0,-0.8520942 -0.423453,-1.2701053 -1.286646,-1.2701053 h -7.42671 c -0.863191,0 -1.286644,0.4180111 -1.286644,1.2701053 v 7.4597897 c 0,0.852094 0.423453,1.270105 1.286644,1.270105 h 7.42671 c 0.863193,0 1.286646,-0.418011 1.286646,-1.270105 V 8.9411777 h -4.136808 v 2.2347343 c 0,0.417996 -0.08144,0.498387 -0.504886,0.498387 h -0.716613 c -0.423453,0 -0.504885,-0.08036 -0.504885,-0.498387 V 4.0697999 c 0,-0.4179959 0.08144,-0.4983867 0.504885,-0.4983867 h 0.716613 c 0.423452,0 0.504886,0.08036 0.504886,0.4983867 v 2.282966 z"
       style="font-style:normal;font-variant:normal;font-weight:900;font-stretch:normal;font-size:10.58333302px;line-height:1.25;font-family:Sarpanch;-inkscape-font-specification:'Sarpanch Heavy';letter-spacing:0px;word-spacing:0px;display:inline;fill:#000000;fill-opacity:1;stroke:none;stroke-width:0.40453899"
       id="path887-5"
       inkscape:connector-curvature="0" />
    <path
       style="font-style:normal;font-variant:normal;font-weight:900;font-stretch:normal;font-size:10.58333302px;line-height:1.25;font-family:Sarpanch;-inkscape-font-specification:'Sarpanch Heavy';letter-spacing:0px;word-spacing:0px;display:inline;fill:#000000;fill-opacity:1;stroke:none;stroke-width:0.40160665"
       d="m 2.623,2.6228141 v 9.9998999 l 4.1371862,-5e-5 -1.87e-4,-5.4819498 2.101938,5.4819498 3.7609688,5e-5 V 2.6228141 H 8.4862492 V 8.1857142 L 6.4000012,2.6228141 Z"
       id="path896-4-4-6"
       inkscape:connector-curvature="0"
       sodipodi:nodetypes="ccccccccccc" />
  </g>
</svg>
