<svg version="1" xmlns="http://www.w3.org/2000/svg" width="933.333" height="933.333" viewBox="0 0 700.000000 700.000000"><path d="M29.2 1.1C18.5 3.2 8.5 10.3 4.5 18.5 0 28 .1 26.5.1 162.5c0 103.3.2 130.2 1.3 135.2 3.3 15.4 13.4 24.5 30.1 27.1 2.2.3 61.8.6 132.5.6 134.2 0 134.1 0 142.5-4.2 9.2-4.5 16.2-14.3 18.1-25.2.4-2.5.8-23.7.8-47.2l.1-42.6-2.5-.4c-1.4-.2-31.5-.3-67-.3l-64.5.1-.5 41c-.6 45.5-.5 45.4-7.3 47.2-1.7.5-11.8.8-22.3.8-20.9-.1-23.3-.7-25.6-6.4-1.7-4.2-1.5-247.1.2-251.2 2.2-5.4 4.6-5.9 27-5.9 23.6 0 25.1.4 26.9 7.5.7 2.7 1.1 18.9 1.1 43.6v39.3h66.8c36.7 0 66.9-.3 67.2-.7.3-.4.5-20.7.5-45-.1-39-.4-45-1.9-50.2-2.8-9.5-7.4-15.6-15-20.1C299.3.1 302 .2 162.5.2c-71 0-130.9.4-133.3.9zM401.3 1.5c-15.5 4.2-24.1 14.1-26.1 30-.8 6.6-.8 257.6.1 263.8.8 6.2 4.5 14.3 8.7 19 4 4.6 14 9.5 21.6 10.5 7.5 1 259.3.8 265.4-.2 5.9-1 15.1-5.7 19-9.7 3.6-3.8 7.5-11.7 8.9-17.9.7-2.9 1-50.5.8-136.5-.3-143.2.1-134.4-5.7-144.5-3.2-5.4-10.4-11.1-17.4-13.6C671.7.6 665.5.5 539 .3 427.6.2 405.7.4 401.3 1.5zm159.6 30.6c3.2 1.1 4.8 3.2 5.7 7.2 1.1 4.7.6 246.2-.5 248.9-2.2 5.8-4.4 6.3-27.6 6.4-24.3.1-27.2-.4-29.7-5.6-1.7-3.3-1.8-11.3-1.5-127.7l.2-124.1 2.4-2.6c1.3-1.4 3.3-2.7 4.5-2.9 5-1 43.5-.6 46.5.4zM.2 523c.3 142 .4 148.7 2.2 153.5 3.8 10.3 10.8 17.3 21.2 21.1 4.5 1.7 9.5 1.9 58 2.2l53.1.3-.1-88.5c-.1-48.7.2-88.2.6-87.8.6.6 9.1 22.5 33.8 87.2 4.5 11.8 9.9 26 12.1 31.5 2.1 5.5 7.9 20.6 12.8 33.5l9 23.5 61.3.3 61.3.2V374.5h-67.2l-67.3-.1-.2 90.1c-.3 77.6-.5 89.5-1.7 86-.7-2.2-1.9-5.4-2.6-7-.8-1.7-3.7-9.3-6.5-17-2.8-7.7-5.5-14.9-5.9-16-2.9-7.3-15.8-41.8-19.3-51.5-1.6-4.7-3.6-9.9-4.3-11.5-.8-1.7-7-18.1-13.9-36.5-6.8-18.4-12.7-34.2-13-35-.6-1.4-8-1.6-62.1-1.6H0L.2 523zM374.6 375c-.1.3-.2 66.6-.1 147.5l.1 147 2.3 6.4c3.9 11.1 8.9 16.6 19.4 21l6.2 2.6 131.5.2c88.2.2 133.3-.1 137-.8 11-2.1 20.3-8.8 24.6-17.7 4.4-9.3 4.4-6.9 4.1-160.7l-.2-146h-132l-.2 142.9c-.1 109.2-.4 143.5-1.4 145.8-2.2 5.4-4.4 5.8-29.7 5.5-25.8-.2-26.2-.3-28.2-7.6-.6-2.3-1-53.9-1-145.1V374.4h-66.1c-36.3 0-66.2.3-66.3.6z"/></svg>